<svg id="Layer_1" enable-background="new 0 0 510 510" height="512" viewBox="0 0 510 510" width="512" xmlns="http://www.w3.org/2000/svg"><g><path d="m461.933 120h-56.933v-60h-30v-60h-240v60h-30v60h-56.933c-2.31 10.012-45.776 198.362-48.067 208.292v181.708h510c0-35.021 0-144.47 0-181.708zm-296.933-90h180v30h-180zm-30 60h240v240h-240zm-63.067 60h33.067v180h-74.605zm408.067 330h-450c0-10.188 0-103.847 0-120h450zm-75-150v-180h33.067l41.538 180z"/><path d="m330 420h-150v-30h-30v60h210v-60h-30z"/><path d="m180 135h150v30h-150z"/><path d="m180 195h150v30h-150z"/><path d="m180 255h150v30h-150z"/></g></svg>